<svg  viewBox="0 0 22 33" fill="none" xmlns="http://www.w3.org/2000/svg">
<path d="M15.844 2.88514C11.2662 1.69344 5.02007 2.56462 5.26663 8.62994C5.51319 14.6953 16.3611 13.2917 18.4822 23.2262C19.0257 26.3825 16.1152 33.0293 6.05563 31.6091C4.16206 31.1752 3.29417 29.686 3.09692 28.9956M15.7339 0.88562C15.7549 0.948641 16.0577 3.52024 16.2065 4.79816" stroke="#272727" stroke-width="1.75919" stroke-linecap="round"/>
<path d="M2.03892 7.88834C7.76538 7.84555 18.8174 7.7259 19.4715 7.88834C20.1255 8.05077 20.0664 8.71822 18.037 10.2107C11.9989 14.0266 0.147734 21.6024 1.55413 23.3463C1.60605 23.4304 1.88844 23.5933 2.60257 23.5724C3.31669 23.5515 14.8276 23.2212 20.4937 23.0586" stroke="#272727" stroke-width="1.75919" stroke-linecap="round"/>
</svg>
