<svg  viewBox="0 0 31 31" fill="none" xmlns="http://www.w3.org/2000/svg">
<path fill-rule="evenodd" clip-rule="evenodd" d="M15.0435 30.9492C23.3277 30.9492 30.0435 24.2335 30.0435 15.9492C30.0435 7.66495 23.3277 0.949219 15.0435 0.949219C6.75919 0.949219 0.043457 7.66495 0.043457 15.9492C0.043457 24.2335 6.75919 30.9492 15.0435 30.9492ZM16.3088 7.4873H19.0135H19.0149V10.4062C18.86 10.4071 18.3994 10.4067 17.9776 10.4064C17.7806 10.4063 17.5921 10.4062 17.4472 10.4062C17.4452 10.4062 17.4421 10.4061 17.438 10.406C17.3245 10.4037 16.4329 10.3853 16.4329 11.2729C16.4387 11.6485 16.4329 12.9416 16.4329 12.9416H19.0254L18.8153 15.8486H16.4935V24.4112H12.9759V15.9047H11.0615V12.9499H12.9184C12.9184 12.6525 12.9193 12.3663 12.9202 12.0862C12.9219 11.5435 12.9236 11.0237 12.9184 10.489C12.9184 8.16238 14.7037 7.4873 16.3088 7.4873Z" />
</svg>
